<svg id="visual" viewBox="0 0 960 540" width="960" height="540" xmlns="http://www.w3.org/2000/svg" xmlns:xlink="http://www.w3.org/1999/xlink" version="1.1"><rect x="0" y="0" width="960" height="540" fill="#ffffff"></rect><path d="M0 320L8.8 337.2C17.7 354.3 35.3 388.7 53.2 397.5C71 406.3 89 389.7 106.8 377.3C124.7 365 142.3 357 160 351.5C177.7 346 195.3 343 213.2 347.8C231 352.7 249 365.3 266.8 377.3C284.7 389.3 302.3 400.7 320 409.7C337.7 418.7 355.3 425.3 373.2 409C391 392.7 409 353.3 426.8 324.3C444.7 295.3 462.3 276.7 480 286.5C497.7 296.3 515.3 334.7 533.2 340.2C551 345.7 569 318.3 586.8 325.3C604.7 332.3 622.3 373.7 640 368.8C657.7 364 675.3 313 693.2 309.5C711 306 729 350 746.8 374.7C764.7 399.3 782.3 404.7 800 393C817.7 381.3 835.3 352.7 853.2 331C871 309.3 889 294.7 906.8 288.3C924.7 282 942.3 284 951.2 285L960 286L960 541L951.2 541C942.3 541 924.7 541 906.8 541C889 541 871 541 853.2 541C835.3 541 817.7 541 800 541C782.3 541 764.7 541 746.8 541C729 541 711 541 693.2 541C675.3 541 657.7 541 640 541C622.3 541 604.7 541 586.8 541C569 541 551 541 533.2 541C515.3 541 497.7 541 480 541C462.3 541 444.7 541 426.8 541C409 541 391 541 373.2 541C355.3 541 337.7 541 320 541C302.3 541 284.7 541 266.8 541C249 541 231 541 213.2 541C195.3 541 177.7 541 160 541C142.3 541 124.7 541 106.8 541C89 541 71 541 53.2 541C35.3 541 17.7 541 8.8 541L0 541Z" fill="#0066FF" stroke-linecap="round" stroke-linejoin="miter"></path></svg>